<svg width="94" height="108" viewBox="0 0 94 108" fill="none" xmlns="http://www.w3.org/2000/svg">
<g filter="url(#filter0_d_1_3)">
<path d="M44.5405 90C39.2498 90 34.4285 88.8907 30.0765 86.672C25.8098 84.4533 22.0978 81.424 18.9405 77.584C15.8685 73.744 13.4792 69.4347 11.7725 64.656C10.0658 59.792 9.2125 54.8 9.2125 49.68C9.2125 38.5013 11.8152 29.328 17.0205 22.16C22.3112 14.992 30.0338 9.31733 40.1885 5.13599C42.9192 4.112 45.9058 3.13066 49.1485 2.19199C52.3912 1.168 55.3352 0.655998 57.9805 0.655998C60.5405 0.655998 62.8445 0.99733 64.8925 1.67999C67.0258 2.36266 68.7752 3.472 70.1405 5.008C71.0792 6.032 71.7192 7.09866 72.0605 8.20799C72.4018 9.23199 72.5725 10.256 72.5725 11.28C73.2552 11.8773 73.9805 12.7733 74.7485 13.968C75.6018 15.0773 76.3698 16.144 77.0525 17.168C80.2098 21.52 82.3432 25.9573 83.4525 30.48C84.6472 35.0027 85.2445 40.0373 85.2445 45.584C85.2445 51.3867 84.2632 56.9333 82.3005 62.224C80.3378 67.5147 77.5218 72.2507 73.8525 76.432C70.2685 80.6133 65.9592 83.9413 60.9245 86.416C55.9752 88.8053 50.5138 90 44.5405 90ZM45.8205 80.656C50.8552 80.656 55.2072 79.504 58.8765 77.2C62.5458 74.8107 65.5752 71.7813 67.9645 68.112C70.3538 64.3573 72.1032 60.3467 73.2125 56.08C74.4072 51.728 75.0045 47.5893 75.0045 43.664C75.0045 41.872 74.7485 39.6107 74.2365 36.88C73.7245 34.1493 72.9138 31.3333 71.8045 28.432C70.7805 25.4453 69.4578 22.672 67.8365 20.112C66.2152 17.552 64.2952 15.4613 62.0765 13.84C59.8578 12.2187 57.3832 11.408 54.6525 11.408C49.2765 11.408 44.4125 12.4747 40.0605 14.608C35.7085 16.7413 31.9538 19.6427 28.7965 23.312C25.7245 26.9813 23.3778 31.12 21.7565 35.728C20.1352 40.2507 19.3245 44.9013 19.3245 49.68C19.3245 53.3493 19.8365 57.0187 20.8605 60.688C21.8845 64.3573 23.4632 67.6853 25.5965 70.672C27.7298 73.6587 30.4605 76.0907 33.7885 77.968C37.2018 79.76 41.2125 80.656 45.8205 80.656Z" fill="black"/>
</g>
<defs>
<filter id="filter0_d_1_3" x="0.812525" y="0.655998" width="92.832" height="106.744" filterUnits="userSpaceOnUse" color-interpolation-filters="sRGB">
<feFlood flood-opacity="0" result="BackgroundImageFix"/>
<feColorMatrix in="SourceAlpha" type="matrix" values="0 0 0 0 0 0 0 0 0 0 0 0 0 0 0 0 0 0 127 0" result="hardAlpha"/>
<feOffset dy="9"/>
<feGaussianBlur stdDeviation="4.2"/>
<feComposite in2="hardAlpha" operator="out"/>
<feColorMatrix type="matrix" values="0 0 0 0 0 0 0 0 0 0 0 0 0 0 0 0 0 0 0.25 0"/>
<feBlend mode="normal" in2="BackgroundImageFix" result="effect1_dropShadow_1_3"/>
<feBlend mode="normal" in="SourceGraphic" in2="effect1_dropShadow_1_3" result="shape"/>
</filter>
</defs>
</svg>
