<svg width="91" height="100" viewBox="0 0 91 100" fill="none" xmlns="http://www.w3.org/2000/svg">
<g filter="url(#filter0_d_1_3)">
<path d="M72.7095 81.88C69.7228 81.88 66.8215 80.8133 64.0055 78.68C61.2748 76.5467 58.7575 74.1147 56.4535 71.384C53.4668 67.6293 50.9922 64.2587 49.0295 61.272C47.1522 58.2853 45.6162 55.9387 44.4215 54.232C43.2268 52.44 42.1602 51.544 41.2215 51.544C40.3682 51.544 39.5148 52.0133 38.6615 52.952C37.8935 53.8053 37.2535 54.4453 36.7415 54.872C36.2295 55.384 35.3335 56.4933 34.0535 58.2C33.4562 58.968 32.7735 59.8213 32.0055 60.76C31.2375 61.6987 30.4695 62.68 29.7015 63.704C28.0802 65.6667 26.6295 67.5013 25.3495 69.208C24.0695 70.8293 23.3015 71.7253 23.0455 71.896C21.7655 73.5173 20.0588 75.0107 17.9255 76.376C15.7922 77.7413 13.8722 78.424 12.1655 78.424C11.2268 78.424 10.5015 78.2107 9.9895 77.784C9.56283 77.272 9.3495 76.2053 9.3495 74.584C9.3495 72.9627 9.69083 71.4267 10.3735 69.976C11.1415 68.5253 12.2082 66.9893 13.5735 65.368C14.2562 64.6 15.2375 63.4907 16.5175 62.04C17.8828 60.5893 19.3335 59.0533 20.8695 57.432C22.4055 55.7253 23.8562 54.1893 25.2215 52.824C26.5868 51.3733 27.6108 50.264 28.2935 49.496C28.9762 48.5573 29.8722 47.32 30.9815 45.784C32.0908 44.248 32.6455 42.7973 32.6455 41.432C32.6455 40.8347 32.5175 40.28 32.2615 39.768C29.2748 35.5013 26.1602 30.808 22.9175 25.688C19.7602 20.4827 16.4748 15.2347 13.0615 9.94399C12.2935 8.74933 11.9095 7.46933 11.9095 6.104C11.9095 4.568 12.3362 3.20266 13.1895 2.008C14.0428 0.813329 15.0242 0.215996 16.1335 0.215996C17.2428 0.215996 18.3095 0.898661 19.3335 2.26399C24.2828 9.60266 28.1228 15.3627 30.8535 19.544C33.6695 23.7253 35.7175 26.7973 36.9975 28.76C38.3628 30.6373 39.2588 31.832 39.6855 32.344C40.1975 32.856 40.6242 33.112 40.9655 33.112C43.8668 31.064 46.5975 28.888 49.1575 26.584C51.7175 24.28 54.4482 21.6773 57.3495 18.776C60.3362 15.8747 63.8348 12.5467 67.8455 8.792C69.2962 7.512 70.9602 6.10399 72.8375 4.56799C74.8002 2.94666 76.6348 2.13599 78.3415 2.13599C79.0242 2.13599 79.6642 2.30666 80.2615 2.64799C81.7975 3.58666 82.5655 4.568 82.5655 5.592C82.5655 6.616 82.0108 7.68267 80.9015 8.792C79.8775 9.816 78.6828 10.9253 77.3175 12.12C72.4535 16.6427 67.9735 20.9947 63.8775 25.176C59.7815 29.272 56.4108 32.856 53.7655 35.928C51.1202 39 49.4988 41.304 48.9015 42.84C48.9868 44.2053 49.6695 45.9973 50.9495 48.216C52.3148 50.4347 53.8082 52.6107 55.4295 54.744C57.0508 56.792 58.3308 58.3707 59.2695 59.48C62.5122 63.2347 65.8828 66.6053 69.3815 69.592C72.8802 72.4933 75.6108 74.6693 77.5735 76.12C78.5122 76.8027 78.9815 77.4853 78.9815 78.168C78.9815 79.2773 78.1708 80.1733 76.5495 80.856C74.9282 81.5387 73.6482 81.88 72.7095 81.88Z" fill="black"/>
</g>
<defs>
<filter id="filter0_d_1_3" x="0.949488" y="0.215996" width="90.016" height="99.064" filterUnits="userSpaceOnUse" color-interpolation-filters="sRGB">
<feFlood flood-opacity="0" result="BackgroundImageFix"/>
<feColorMatrix in="SourceAlpha" type="matrix" values="0 0 0 0 0 0 0 0 0 0 0 0 0 0 0 0 0 0 127 0" result="hardAlpha"/>
<feOffset dy="9"/>
<feGaussianBlur stdDeviation="4.2"/>
<feComposite in2="hardAlpha" operator="out"/>
<feColorMatrix type="matrix" values="0 0 0 0 0 0 0 0 0 0 0 0 0 0 0 0 0 0 0.25 0"/>
<feBlend mode="normal" in2="BackgroundImageFix" result="effect1_dropShadow_1_3"/>
<feBlend mode="normal" in="SourceGraphic" in2="effect1_dropShadow_1_3" result="shape"/>
</filter>
</defs>
</svg>
